<svg width="16" height="16" viewBox="0 0 16 16" fill="none" xmlns="http://www.w3.org/2000/svg">
<rect width="16" height="16" fill="white"/>
<g id="iPhone 13 mini - 1">
<g clip-path="url(#clip0_0_1)">
<rect x="-95" y="-56" width="375" height="812" rx="40" fill="white"/>
<g id="Frame-31-iPhone13mini-1" clip-path="url(#clip1_0_1)">
<path id="Vector-31-Frame-31-iPhone13mini-10" d="M7.99951 1C6.54135 1.00173 5.14341 1.58175 4.11234 2.61282C3.08126 3.6439 2.50124 5.04184 2.49951 6.5C2.49951 11.2061 7.49951 14.7607 7.7124 14.9097C7.7966 14.9685 7.89682 15 7.99951 15C8.10221 15 8.20243 14.9685 8.28662 14.9097C8.49951 14.7607 13.4995 11.2061 13.4995 6.5C13.4978 5.04184 12.9178 3.6439 11.8867 2.61282C10.8556 1.58175 9.45767 1.00173 7.99951 1ZM7.99988 4.50018C8.39544 4.50018 8.78212 4.61748 9.11102 4.83724C9.43992 5.05701 9.69626 5.36936 9.84764 5.73481C9.99901 6.10027 10.0386 6.5024 9.96145 6.89036C9.88428 7.27832 9.6938 7.63469 9.41409 7.9144C9.13439 8.1941 8.77802 8.38458 8.39006 8.46175C8.0021 8.53892 7.59996 8.49932 7.23451 8.34794C6.86906 8.19657 6.5567 7.94022 6.33694 7.61132C6.11718 7.28242 5.99988 6.89574 5.99988 6.50018C5.99987 6.23754 6.0516 5.97746 6.1521 5.73481C6.25261 5.49215 6.39993 5.27167 6.58565 5.08595C6.77137 4.90023 6.99185 4.75291 7.2345 4.65241C7.47716 4.5519 7.73723 4.50017 7.99988 4.50018Z" fill="#FF0000"/>
</g>
<g id="Pattern-31-iPhone13mini-1" opacity="0.1">
<g id="BACKGROUND2-31-Pattern-31-iPhone13mini-1">
<g id="Group-31-BACKGROUND2-31-Pattern-31-iPhone13mini-1">
</g>
</g>
</g>
</g>
<rect x="-93" y="-54" width="371" height="808" rx="38" stroke="black" stroke-width="4"/>
</g>
<defs>
<clipPath id="clip0_0_1">
<rect x="-95" y="-56" width="375" height="812" rx="40" fill="white"/>
</clipPath>
<clipPath id="clip1_0_1">
<rect width="16" height="16" fill="white"/>
</clipPath>
</defs>
</svg>
